<svg width="16" height="18" viewBox="0 0 16 18" fill="currentColor" xmlns="http://www.w3.org/2000/svg">
<path d="M9.29542 17.7982C9.16169 17.6645 9.09887 17.5174 9.10698 17.3569C9.11427 17.1964 9.17709 17.057 9.29542 16.9387L13.4702 12.7651H1.96461C1.41996 12.7651 0.956369 12.5738 0.573821 12.1913C0.191274 11.8087 0 11.3455 0 10.8017V0.60787C0 0.435237 0.0579496 0.290566 0.173849 0.173857C0.289747 0.0571475 0.434418 -0.000802098 0.607861 8.38427e-06C0.781305 0.000818866 0.925975 0.0587685 1.04187 0.173857C1.15777 0.288945 1.21572 0.433616 1.21572 0.60787V10.8017C1.21572 11.0197 1.28583 11.1988 1.42604 11.3391C1.56626 11.4793 1.74578 11.5494 1.96461 11.5494H13.469L9.28934 7.36972C9.1548 7.23518 9.08874 7.09172 9.09117 6.93935C9.09361 6.78617 9.15966 6.64272 9.28934 6.50899C9.42307 6.37526 9.57017 6.31082 9.73064 6.31569C9.89112 6.32055 10.0305 6.38255 10.1489 6.50169L15.1175 11.4704C15.2229 11.5757 15.297 11.6839 15.34 11.795C15.3829 11.906 15.4044 12.0267 15.4044 12.1572C15.4044 12.2877 15.3829 12.4085 15.34 12.5195C15.297 12.6306 15.2229 12.7392 15.1175 12.8453L10.1634 17.7982C10.0289 17.9327 9.88423 18 9.72943 18C9.57463 18 9.42996 17.9327 9.29542 17.7982Z" fill="currentColor"/>
</svg>
