<svg width="4" height="15" viewBox="0 0 4 15" fill="currentColor" xmlns="http://www.w3.org/2000/svg">
<g clip-path="url(#clip0_119_652)">
<path d="M3.99954 11.9318V13.9773C3.99954 14.2614 3.90235 14.5028 3.70797 14.7017C3.51358 14.9006 3.27755 15 2.99986 15H1.00048C0.72279 15 0.486753 14.9006 0.292369 14.7017C0.0979853 14.5028 0.000793457 14.2614 0.000793457 13.9773V11.9318C0.000793457 11.6477 0.0979853 11.4062 0.292369 11.2074C0.486753 11.0085 0.72279 10.9091 1.00048 10.9091H2.99986C3.27755 10.9091 3.51358 11.0085 3.70797 11.2074C3.90235 11.4062 3.99954 11.6477 3.99954 11.9318ZM3.99954 6.47727V8.52273C3.99954 8.80682 3.90235 9.0483 3.70797 9.24716C3.51358 9.44602 3.27755 9.54545 2.99986 9.54545H1.00048C0.72279 9.54545 0.486753 9.44602 0.292369 9.24716C0.0979853 9.0483 0.000793457 8.80682 0.000793457 8.52273V6.47727C0.000793457 6.19318 0.0979853 5.9517 0.292369 5.75284C0.486753 5.55398 0.72279 5.45455 1.00048 5.45455H2.99986C3.27755 5.45455 3.51358 5.55398 3.70797 5.75284C3.90235 5.9517 3.99954 6.19318 3.99954 6.47727ZM3.99954 1.02273V3.06818C3.99954 3.35227 3.90235 3.59375 3.70797 3.79261C3.51358 3.99148 3.27755 4.09091 2.99986 4.09091H1.00048C0.72279 4.09091 0.486753 3.99148 0.292369 3.79261C0.0979853 3.59375 0.000793457 3.35227 0.000793457 3.06818V1.02273C0.000793457 0.738636 0.0979853 0.497159 0.292369 0.298295C0.486753 0.0994318 0.72279 0 1.00048 0H2.99986C3.27755 0 3.51358 0.0994318 3.70797 0.298295C3.90235 0.497159 3.99954 0.738636 3.99954 1.02273Z" fill="currentColor"/>
</g>
<defs>
<clipPath id="clip0_119_652">
<rect width="4" height="15" fill="currentColor"/>
</clipPath>
</defs>
</svg>
