<?xml version="1.0" encoding="UTF-8"?>
<svg version="1.1" xmlns="http://www.w3.org/2000/svg" viewBox="0 0 519 519" width="519" height="519">
<path d="M0 0 C2.69370413 0.00419142 5.38739467 0.00174546 8.08110046 -0.00012207 C13.70338253 -0.00006879 19.32532519 0.01951801 24.94750977 0.05175781 C31.42563621 0.08872782 37.90332048 0.09741792 44.38153869 0.0904603 C50.65000514 0.08413509 56.91832187 0.094941 63.18675804 0.11442566 C65.8392828 0.12254947 68.49159738 0.12458257 71.14415932 0.12373352 C74.85066179 0.12553751 78.55654461 0.14696938 82.26293945 0.17382812 C83.89259644 0.16943222 83.89259644 0.16943222 85.55517578 0.16494751 C98.01228114 0.30374225 106.67304642 4.43881472 115.75390625 12.921875 C122.38553191 19.83616011 125.89485429 26.22713206 126.80273438 35.76953125 C126.88962524 36.67227783 126.97651611 37.57502441 127.06604004 38.50512695 C127.13061401 39.19437256 127.19518799 39.88361816 127.26171875 40.59375 C128.97181531 40.58960193 128.97181531 40.58960193 130.71645927 40.58537006 C158.46774378 40.51874595 186.21901791 40.4694606 213.97036552 40.43831348 C216.64300417 40.43525399 219.31564274 40.43213003 221.98828125 40.42895508 C222.65256524 40.42816815 223.31684923 40.42738122 224.00126304 40.42657044 C234.07801348 40.41434038 244.15472132 40.39328443 254.23144531 40.36743164 C265.92979217 40.33751265 277.62810074 40.31817102 289.3264848 40.31148452 C295.51961388 40.30757653 301.71263344 40.29840338 307.90572739 40.27655983 C313.73823229 40.25615532 319.57058283 40.24992428 325.40312004 40.25442696 C327.54040428 40.25360354 329.67769382 40.24766165 331.81494713 40.23613358 C334.74122932 40.22112752 337.66693464 40.22482599 340.5932312 40.23298645 C341.43178426 40.22424793 342.27033731 40.2155094 343.13430107 40.20650607 C354.31306879 40.29031649 362.98859533 44.12712604 371.26171875 51.59375 C378.96507224 60.58099574 380.70943191 69.49710905 380.65612793 81.01605225 C380.66221903 82.25582077 380.66831014 83.4955893 380.67458582 84.77292657 C380.68831592 88.19792625 380.68867886 91.62244454 380.68321085 95.04743528 C380.68053377 98.7476554 380.69508525 102.44781488 380.70730591 106.14801025 C380.72833443 113.39138841 380.73290221 120.63468647 380.73111802 127.87809154 C380.72980895 133.76834948 380.73362197 139.6585825 380.74104309 145.54883575 C380.74314236 147.24736794 380.74523996 148.94590012 380.74733591 150.64443231 C380.7489012 151.91267037 380.7489012 151.91267037 380.75049812 153.20652941 C380.76939053 169.18857984 380.76835353 185.17058435 380.76152879 201.15264133 C380.75595566 215.75844792 380.77677068 230.36407897 380.80988926 244.96984455 C380.84366232 259.98125559 380.85878998 274.99258264 380.85417223 290.00403237 C380.85193099 298.42607011 380.8571199 306.84794567 380.88206482 315.26995087 C380.90312488 322.4411993 380.90662363 329.61219667 380.88776523 336.78345558 C380.87863567 340.43874692 380.8773778 344.09357074 380.89812088 347.74882507 C380.92040987 351.72061097 380.90354388 355.6917055 380.88317871 359.66351318 C380.89569656 360.80595041 380.90821441 361.94838764 380.92111158 363.12544417 C380.80083942 374.10714654 377.29494369 383.60656197 369.6484375 391.6171875 C362.06727752 397.89552948 353.91805949 400.71432517 344.24095821 400.72797108 C343.53052145 400.73032331 342.82008469 400.73267554 342.08811954 400.73509905 C339.69536337 400.74178308 337.30266157 400.741331 334.90989685 400.74092102 C333.18186725 400.74422002 331.45383843 400.74794566 329.72581059 400.7520625 C324.96742257 400.76208658 320.20904717 400.76579995 315.4506501 400.76845181 C310.32230395 400.77235366 305.19396781 400.7819321 300.06562805 400.79066467 C287.67558976 400.81043269 275.28555064 400.82049583 262.89550051 400.82939246 C257.06169668 400.83377491 251.22789376 400.83914184 245.39409065 400.84438133 C226.00257143 400.86139413 206.61105278 400.87588841 187.21952724 400.88313007 C182.18663469 400.88503999 177.15374214 400.88696032 172.12084961 400.88891602 C170.24448343 400.88964163 170.24448343 400.88964163 168.33021087 400.8903819 C148.06530769 400.89868257 127.80046352 400.92401991 107.53558611 400.95649669 C86.73300689 400.98956356 65.93045767 401.00757851 45.12785202 401.01077431 C33.44678943 401.01293978 21.76581291 401.0216938 10.08477592 401.04723549 C0.13677822 401.06893738 -9.81111251 401.07699539 -19.7591312 401.06726871 C-24.83389812 401.06272253 -29.90844432 401.06462887 -34.983181 401.08403015 C-39.63260214 401.10165171 -44.28164136 401.10067218 -48.93106651 401.08513286 C-50.60946728 401.08275527 -52.28789443 401.0870882 -53.9662549 401.09896151 C-68.2927406 401.19400156 -80.26067436 398.72440856 -90.93359375 388.48828125 C-98.64968931 380.21696848 -101.35875663 372.30861747 -103.20678711 361.34155273 C-103.52007792 359.56677001 -103.52007792 359.56677001 -103.83969784 357.75613308 C-104.48950706 354.03800186 -105.11789793 350.31689711 -105.73828125 346.59375 C-105.92960255 345.44763874 -106.12092384 344.30152748 -106.31804276 343.12068558 C-107.46593726 336.18957088 -108.57300059 329.25240099 -109.66339302 322.31202888 C-110.26209058 318.50225427 -110.86549921 314.69324913 -111.46995544 310.88438416 C-112.96771029 301.44279873 -114.45787378 292.00001741 -115.9473877 282.55712891 C-117.21518226 274.52069318 -118.48641004 266.4848148 -119.76200676 258.44961357 C-120.3500509 254.7370953 -120.93337608 251.02385668 -121.51649475 247.31056213 C-123.38534171 235.48913082 -125.42659348 223.73914227 -127.84056091 212.01689148 C-129.97907515 201.60220973 -131.6094964 191.08961227 -133.3125 180.59667969 C-133.75890791 177.85345202 -134.21695174 175.11257014 -134.68554688 172.37304688 C-137.09259022 158.27448071 -139.15822688 144.32126561 -139.22265625 129.9765625 C-139.2298468 128.90961151 -139.23703735 127.84266052 -139.2444458 126.74337769 C-139.12591985 119.05570962 -137.43541018 114.13353399 -132.23828125 108.34375 C-131.65046875 107.67859375 -131.06265625 107.0134375 -130.45703125 106.328125 C-128.73828125 104.59375 -128.73828125 104.59375 -125.73828125 102.59375 C-124.74828125 102.59375 -123.75828125 102.59375 -122.73828125 102.59375 C-122.40828125 101.93375 -122.07828125 101.27375 -121.73828125 100.59375 C-116.34216249 98.58687098 -111.51314087 98.34148235 -105.80078125 98.46875 C-105.02154297 98.47777344 -104.24230469 98.48679687 -103.43945312 98.49609375 C-101.53892678 98.51941309 -99.63856117 98.55527414 -97.73828125 98.59375 C-97.75922852 97.80838867 -97.78017578 97.02302734 -97.80175781 96.21386719 C-97.88587059 92.59062964 -97.93724113 88.96759852 -97.98828125 85.34375 C-98.02179688 84.10882813 -98.0553125 82.87390625 -98.08984375 81.6015625 C-98.20804164 70.3727633 -96.27312158 60.38755297 -88.85546875 51.6328125 C-81.36534427 44.41907638 -73.15296435 40.4326982 -62.73828125 40.59375 C-62.6403125 39.83191406 -62.54234375 39.07007813 -62.44140625 38.28515625 C-61.4538201 31.46570358 -59.92113538 25.71224629 -56.73828125 19.59375 C-56.07828125 19.59375 -55.41828125 19.59375 -54.73828125 19.59375 C-54.68027344 19.03558594 -54.62226562 18.47742188 -54.5625 17.90234375 C-53.35501321 14.52023621 -51.26262173 12.98119646 -48.55078125 10.65625 C-47.60847656 9.82222656 -46.66617188 8.98820312 -45.6953125 8.12890625 C-31.89198028 -1.48040987 -16.08714808 -0.10861342 0 0 Z M-39.67578125 27.53125 C-43.01219953 32.88831597 -43.63374904 39.48716427 -44.73828125 45.59375 C-46.51298453 54.40054823 -46.51298453 54.40054823 -49.73828125 56.59375 C-54.14314634 58.06203836 -58.57560949 57.92903239 -63.1953125 58.1171875 C-68.666847 58.85316017 -72.56239295 60.80613527 -76.05078125 65.09375 C-76.78748047 65.97546875 -76.78748047 65.97546875 -77.5390625 66.875 C-80.0026205 70.40583231 -79.85547979 73.63046059 -79.8359375 77.79296875 C-79.83271484 79.00146484 -79.82949219 80.20996094 -79.82617188 81.45507812 C-79.81779297 82.71771484 -79.80941406 83.98035156 -79.80078125 85.28125 C-79.79626953 86.55548828 -79.79175781 87.82972656 -79.78710938 89.14257812 C-79.77530998 92.29301564 -79.75884722 95.44335949 -79.73828125 98.59375 C-77.75828125 98.59375 -75.77828125 98.59375 -73.73828125 98.59375 C-73.71846191 98.01931152 -73.69864258 97.44487305 -73.67822266 96.85302734 C-73.58236101 94.22451167 -73.47293251 91.59672509 -73.36328125 88.96875 C-73.316875 87.61330078 -73.316875 87.61330078 -73.26953125 86.23046875 C-73.05775212 81.39484523 -72.8072863 77.05548198 -70.73828125 72.59375 C-67.07205174 70.14959699 -65.33102293 70.34409813 -60.95877838 70.34486103 C-59.91405189 70.3409501 -59.91405189 70.3409501 -58.84821981 70.33696017 C-56.49690799 70.33062638 -54.14585982 70.33864407 -51.79455566 70.34651184 C-50.09881062 70.34492468 -48.4030662 70.34246201 -46.70732355 70.33919543 C-42.03381602 70.33276068 -37.36039465 70.33886646 -32.68689275 70.34695971 C-27.65207335 70.35352064 -22.61726385 70.34859174 -17.58244324 70.34507751 C-7.71380805 70.34002793 2.15479371 70.34568666 12.02342474 70.35492782 C23.50635937 70.3652954 34.9892867 70.36524206 46.47222513 70.36475524 C66.95528607 70.36425424 87.43833141 70.37342638 107.92138672 70.38793945 C127.8149443 70.40202763 147.70848815 70.40911026 167.60205078 70.40844727 C169.43980698 70.40838733 169.43980698 70.40838733 171.31468958 70.40832619 C173.14921099 70.40826565 173.14921099 70.40826565 175.02079344 70.4082039 C197.64243506 70.40751463 220.26407084 70.41340083 242.88571057 70.42235712 C250.89737392 70.42537787 258.90903621 70.4264372 266.92070007 70.42688942 C276.6789842 70.42757049 286.43725846 70.43202028 296.1955384 70.44122223 C301.17808997 70.44584969 306.16062889 70.44888224 311.14318275 70.44762802 C315.69897248 70.44653681 320.2547342 70.45002786 324.81051809 70.45727655 C326.46390189 70.45909689 328.11728857 70.4592134 329.7706725 70.45750926 C332.00788734 70.45545768 334.24500917 70.45948454 336.48221588 70.46511555 C337.72797095 70.46581997 338.97372602 70.4665244 340.25723124 70.46725017 C343.26171875 70.59375 343.26171875 70.59375 346.26171875 71.59375 C347.19023317 74.37929325 347.37250909 75.94191469 347.3324585 78.80653381 C347.32342782 79.66802662 347.31439714 80.52951942 347.30509281 81.41711807 C347.29045711 82.36236217 347.2758214 83.30760628 347.26074219 84.28149414 C347.23853195 86.36252832 347.2168454 88.44356814 347.19560242 90.52461243 C347.17652612 92.19373908 347.17652612 92.19373908 347.15706444 93.89658546 C346.65399818 142.5984084 346.3756062 190.74086874 354.82421875 238.84375 C355.05621223 240.16591459 355.05621223 240.16591459 355.29289246 241.51478958 C357.12979266 251.90596607 359.10577828 262.26377914 361.26171875 272.59375 C361.59171875 272.59375 361.92171875 272.59375 362.26171875 272.59375 C362.37853608 246.39444261 362.46669926 220.19517427 362.52077961 193.99565887 C362.54655783 181.83067619 362.58170135 169.66585536 362.63891602 157.50097656 C362.68876232 146.89768824 362.72101253 136.29451714 362.73216122 125.6911149 C362.73867782 120.07698461 362.75398626 114.46318966 362.79036903 108.84916687 C362.82434757 103.56322088 362.8347678 98.27774786 362.82725716 92.99170303 C362.82863086 91.0535182 362.83855211 89.11531729 362.85774612 87.17722702 C362.88271369 84.52573702 362.87661103 81.87602042 362.86299133 79.2244873 C362.87755554 78.46181848 362.89211975 77.69914966 362.90712529 76.91336966 C362.82702064 71.12332976 361.18763718 66.90584715 357.26171875 62.59375 C351.83271989 58.39008923 346.22821419 58.02156515 339.57713318 58.10168457 C338.15933763 58.09466609 338.15933763 58.09466609 336.71289974 58.08750582 C333.56149201 58.07661639 330.41089085 58.09403155 327.25952148 58.11132812 C324.99386358 58.10914123 322.7282068 58.10514292 320.46255493 58.09947205 C315.59148513 58.09091735 310.72063583 58.09467642 305.84957695 58.1078949 C298.14720836 58.12824384 290.44506172 58.11824922 282.74269104 58.1036377 C271.94473323 58.085971 261.14684665 58.07933122 250.34887695 58.08447266 C249.66440513 58.08479329 248.9799333 58.08511392 248.2747199 58.08544427 C243.41621927 58.08781747 238.55771901 58.09072217 233.69921875 58.09375 C228.14754248 58.09720949 222.5958662 58.10042788 217.04418945 58.10302734 C216.0182849 58.10351561 216.0182849 58.10351561 214.971655 58.10401374 C203.56159925 58.10895844 192.15162709 58.09810591 180.74158818 58.07645559 C173.08467844 58.06307455 165.42810141 58.06905251 157.7712115 58.08982086 C153.00938082 58.09880026 148.24767872 58.09133882 143.48585892 58.07940865 C141.27797194 58.07727624 139.07006604 58.0820084 136.86221123 58.0941143 C133.84756782 58.1097122 130.83394501 58.10076333 127.81932068 58.08581543 C126.94635847 58.09630433 126.07339626 58.10679322 125.17398065 58.11759996 C119.40351035 58.05390888 116.00069696 56.93831405 111.26171875 53.59375 C110.25512695 51.61425781 110.25512695 51.61425781 110.0625 49.546875 C109.96775391 48.78375 109.87300781 48.020625 109.77539062 47.234375 C109.70900391 46.44546875 109.64261719 45.6565625 109.57421875 44.84375 C108.83127299 37.47569292 107.47135143 31.31319011 102.515625 25.5703125 C101.67837891 24.90128906 101.67837891 24.90128906 100.82421875 24.21875 C100.26863281 23.75726563 99.71304688 23.29578125 99.140625 22.8203125 C95.28410216 20.30274873 91.78894485 19.34435753 87.21003723 19.31959534 C86.21633118 19.30962021 85.22262512 19.29964508 84.19880676 19.28936768 C83.11975571 19.288703 82.04070465 19.28803833 80.92895508 19.28735352 C79.78361298 19.27903 78.63827087 19.27070648 77.45822144 19.26213074 C73.67002973 19.23802704 69.88201028 19.22925727 66.09375 19.22265625 C63.45684254 19.21368902 60.81993559 19.20456716 58.18302917 19.19529724 C52.65253051 19.17794161 47.12207563 19.17107359 41.59155273 19.16821289 C35.21862742 19.16458332 28.84618537 19.13472656 22.47340757 19.09280831 C16.32405242 19.05379138 10.1749304 19.04261751 4.02545738 19.04148674 C1.41844758 19.03728916 -1.1885628 19.02487364 -3.79549217 19.00396919 C-7.45026586 18.97699953 -11.10372127 18.98189894 -14.75854492 18.99438477 C-15.82747482 18.97955048 -16.89640472 18.96471619 -17.99772644 18.94943237 C-26.32420557 19.03009951 -33.95556516 21.1133629 -39.67578125 27.53125 Z M-54.73828125 87.59375 C-54.73828125 91.22375 -54.73828125 94.85375 -54.73828125 98.59375 C-53.5976099 98.59521521 -53.5976099 98.59521521 -52.43389469 98.59671003 C-7.36591704 98.65497909 37.70201226 98.72877365 82.76993036 98.82273628 C88.18101128 98.83400448 93.59209247 98.84514292 99.00317383 98.85620117 C100.08042497 98.85840486 101.15767611 98.86060854 102.26757122 98.862879 C119.71140526 98.89825362 137.15523926 98.92311683 154.59909587 98.94409702 C172.49743446 98.96585774 190.39572649 98.99891077 208.29402548 99.04245156 C219.33866781 99.06896355 230.38325212 99.08666227 241.4279247 99.09309604 C249.00115417 99.09835129 256.57431063 99.11457292 264.14750098 99.13941566 C268.51715151 99.15342589 272.88667136 99.16260323 277.25634575 99.15875816 C281.25939346 99.15534254 285.26216227 99.16574373 289.26515288 99.18698552 C290.71078513 99.19224444 292.15644641 99.19249774 293.60207831 99.18714563 C300.64494002 99.16373372 306.93574286 99.24661594 313.52596766 101.90879315 C315.41454021 102.72962954 315.41454021 102.72962954 318.19921875 103.03125 C318.87984375 103.216875 319.56046875 103.4025 320.26171875 103.59375 C320.946586 104.91782669 321.61042078 106.25284241 322.26171875 107.59375 C325.293738 109.83782254 325.293738 109.83782254 328.26171875 111.59375 C330.71024057 109.14522818 329.74684074 102.90145352 329.88671875 99.59375 C329.93828125 98.55734375 329.98984375 97.5209375 330.04296875 96.453125 C330.10871094 94.97585937 330.10871094 94.97585937 330.17578125 93.46875 C330.21654785 92.55867188 330.25731445 91.64859375 330.29931641 90.7109375 C330.50708602 88.60763718 330.50708602 88.60763718 329.26171875 87.59375 C327.22361554 87.4958813 325.18205216 87.47003775 323.14160061 87.47070217 C322.49211127 87.46954833 321.84262193 87.46839448 321.1734511 87.46720567 C318.97005551 87.46453269 316.7667312 87.46906671 314.56333923 87.47349548 C312.97855266 87.47305992 311.39376616 87.47218529 309.80898005 87.47090632 C305.43302595 87.46865843 301.05709608 87.47268664 296.68114507 87.47768438 C291.97014385 87.4819845 287.25914411 87.48054277 282.54814148 87.4797821 C274.37900911 87.47925659 266.20988469 87.48240625 258.04075432 87.48801994 C246.22941935 87.49613124 234.41808825 87.49874978 222.60675079 87.50000793 C203.44575811 87.50219904 184.28476967 87.50886071 165.1237793 87.51831055 C146.50561545 87.52748316 127.88745276 87.53456473 109.26928711 87.53881836 C107.54917174 87.53921244 107.54917174 87.53921244 105.79430657 87.53961449 C100.04169385 87.54091949 94.28908112 87.5421832 88.53646839 87.54342639 C40.77821557 87.55380083 -6.98003263 87.57142073 -54.73828125 87.59375 Z M-119.73828125 122.59375 C-124.3942079 131.9056033 -119.49071658 148.32173968 -117.88012695 158.17407227 C-117.57204422 160.10920708 -117.26491712 162.04449423 -116.95866394 163.97991943 C-116.12930431 169.20354819 -115.28656096 174.42493622 -114.44120812 179.64599729 C-113.55236872 185.1498144 -112.67573944 190.65557659 -111.7976532 196.16111755 C-110.31927068 205.41968515 -108.83299433 214.67695579 -107.34106445 223.93334961 C-105.25292556 236.88889411 -103.17910079 249.84669889 -101.10816824 262.80500329 C-99.48381228 272.96550994 -97.85548293 283.12538051 -96.2265625 293.28515625 C-96.0551009 294.35483934 -95.8836393 295.42452242 -95.7069819 296.52662015 C-93.81094397 308.35235749 -91.90389673 320.17608723 -89.96650881 331.99512547 C-89.17887788 336.81991974 -88.41945291 341.64757666 -87.69620615 346.48243839 C-87.38362577 348.55967108 -87.06165331 350.63519335 -86.7357893 352.7103796 C-86.35951091 355.11747392 -85.99970997 357.52724315 -85.66177082 359.94001865 C-84.27325374 368.58437856 -81.11003784 374.2757068 -74.05078125 379.53125 C-69.35914352 382.4524584 -66.31876028 382.72025653 -60.87624741 382.72797108 C-60.17083122 382.73032331 -59.46541504 382.73267554 -58.73862261 382.73509905 C-56.35696278 382.74179609 -53.97535743 382.74133061 -51.59368896 382.74092102 C-49.87604605 382.7442192 -48.15840391 382.74794467 -46.44076276 382.7520625 C-41.70659765 382.76209572 -36.97244523 382.76580141 -32.238271 382.76845181 C-27.1379322 382.7723509 -22.03760349 382.78192946 -16.93727112 382.79066467 C-4.61357792 382.81043944 7.71011612 382.82049621 20.03382123 382.82939246 C25.83377392 382.83377338 31.6337257 382.83914067 37.43367767 382.84438133 C56.70764095 382.86139401 75.98160364 382.87588922 95.25557327 382.88313007 C100.2587611 382.88504004 105.26194891 382.88696036 110.26513672 382.88891602 C111.5086904 382.88939976 112.75224408 382.8898835 114.03348121 382.8903819 C134.18798615 382.89868604 154.3424318 382.92402929 174.49691084 382.95649669 C195.17739776 382.98954057 215.85785452 383.00757638 236.53836799 383.01077431 C248.15448414 383.0129418 259.77051384 383.02172542 271.38660431 383.04723549 C281.27728222 383.06890593 291.16785268 383.07701091 301.05855164 383.06726871 C306.10648792 383.0627135 311.15420231 383.06468102 316.20210838 383.08403015 C320.82237126 383.10158744 325.44224916 383.10072479 330.06251571 383.08513286 C331.73481873 383.08274546 333.40714789 383.0871387 335.07941082 383.09896151 C337.35218267 383.11403584 339.62358248 383.10444044 341.89632034 383.08873463 C343.1587831 383.08971144 344.42124587 383.09068824 345.72196507 383.09169465 C350.17388926 382.46543304 352.53991612 381.08734147 356.26171875 378.59375 C359.70774824 373.59125269 359.49468671 367.85896953 358.55664062 362.08398438 C358.39744141 361.24158203 358.23824219 360.39917969 358.07421875 359.53125 C357.93435547 358.68498047 357.79449219 357.83871094 357.65039062 356.96679688 C357.02520311 353.29770996 356.2964427 349.7249566 355.34338379 346.12376404 C354.0516248 340.96911305 353.23194975 335.75824766 352.4050293 330.51220703 C352.23029839 329.422029 352.05556747 328.33185097 351.87554169 327.20863724 C351.29646123 323.59014301 350.72241305 319.97086971 350.1484375 316.3515625 C349.73835103 313.78158033 349.3279698 311.21164519 348.91731262 308.64175415 C348.04404402 303.17391732 347.173335 297.70567781 346.30419922 292.23718262 C345.06206936 284.42249233 343.81382713 276.60878648 342.56446338 268.79524994 C338.54689622 243.66513468 334.54471606 218.53292722 330.65229225 193.38306808 C330.19578649 190.43630216 329.73771573 187.48978446 329.27897644 184.54336548 C329.13338067 183.60812483 328.9877849 182.67288418 328.83777714 181.7093029 C328.55287693 179.87952446 328.26790238 178.04975759 327.98284817 176.22000313 C327.17667507 171.03778544 326.38223761 165.85394042 325.59676647 160.66854668 C325.11604427 157.51147079 324.62513898 154.35604045 324.13144493 151.2009697 C323.91087659 149.77688764 323.69465672 148.35212315 323.48343849 146.9266243 C321.9565532 136.6355697 320.51543331 127.60547578 312.140625 120.78515625 C307.50011199 117.84262721 303.57734012 117.3420872 298.1195612 117.33368778 C297.40816098 117.32988211 296.69676076 117.32607644 295.96380296 117.32215545 C293.5737819 117.31182763 291.18399781 117.31574798 288.79396057 117.31959534 C287.06562774 117.3151436 285.33729694 117.30982977 283.60896915 117.30372661 C278.85457446 117.2895289 274.10024509 117.28788365 269.34583223 117.28832352 C264.22031763 117.28667692 259.09483008 117.2736135 253.96932983 117.26213074 C242.76090321 117.23927144 231.55249551 117.23135945 220.34404874 117.22630429 C213.34826389 117.22304902 206.35248454 117.21652765 199.3567028 117.2093029 C179.99429914 117.18973747 160.63190061 117.17333236 141.26948643 117.17042637 C140.03024229 117.1702388 138.79099815 117.17005123 137.51420116 117.16985798 C135.0018787 117.16949172 132.48955624 117.16912802 129.97723377 117.16876686 C128.73008598 117.16858405 127.48293819 117.16840124 126.19799805 117.16821289 C124.94933183 117.16803234 123.70066561 117.16785179 122.41416102 117.16766577 C102.168557 117.16412199 81.9230592 117.13708658 61.67749203 117.099715 C40.90089106 117.06166937 20.12434285 117.04226918 -0.65229374 117.04196686 C-12.32146079 117.04138152 -23.99050105 117.03284015 -35.65963554 117.00396919 C-45.59313456 116.97950562 -55.52646053 116.97213853 -65.45998149 116.98721672 C-70.53012834 116.99440565 -75.59993314 116.99344287 -80.67004204 116.97080612 C-85.30937129 116.95029061 -89.94809392 116.95274657 -94.58741606 116.97368097 C-96.26771667 116.9771901 -97.94806039 116.97220595 -99.62830441 116.95797653 C-101.90970353 116.9398978 -104.18894969 116.95254351 -106.47028255 116.97292423 C-107.73811642 116.97210978 -109.00595028 116.97129532 -110.31220335 116.97045618 C-114.85184035 117.79633573 -116.487342 119.37029612 -119.73828125 122.59375 Z " fill="currentColor" transform="translate(138.73828125,58.40625)"/>

</svg>
