<svg width="27" height="21" viewBox="0 0 27 21" fill="none" xmlns="http://www.w3.org/2000/svg">
<path fill-rule="evenodd" clip-rule="evenodd" d="M0 2.33333C0 1.71449 0.280951 1.121 0.781048 0.683417C1.28115 0.245833 1.95942 0 2.66667 0H10.0267C10.4264 4.36306e-05 10.8209 0.0787018 11.1812 0.230158C11.5414 0.381614 11.8582 0.601994 12.108 0.875L13.9747 2.91667H24C24.7072 2.91667 25.3855 3.1625 25.8856 3.60008C26.3857 4.03767 26.6667 4.63116 26.6667 5.25V18.6667C26.6667 19.2855 26.3857 19.879 25.8856 20.3166C25.3855 20.7542 24.7072 21 24 21H2.66667C1.95942 21 1.28115 20.7542 0.781048 20.3166C0.280951 19.879 0 19.2855 0 18.6667V2.33333ZM13.3509 7.03477C13.7046 7.03477 13.9619 7.12292 14.2119 7.34171C14.462 7.5605 14.5679 7.8389 14.5679 8.14832V10.5779H16.8835C17.2371 10.5779 17.7171 10.5666 17.9671 10.7853C18.2172 11.0041 18.3574 11.3821 18.3574 11.6915C18.3574 12.0009 18.2172 12.3736 17.9671 12.5924C17.7171 12.8112 17.2371 12.8333 16.8835 12.8333H14.5679V15.1667C14.5679 15.4761 14.5214 15.7728 14.2713 15.9916C14.0213 16.2104 13.8074 16.2835 13.4537 16.2835C13.1001 16.2835 12.7009 16.2104 12.4509 15.9916C12.2008 15.7728 12.1292 15.4761 12.1292 15.1667V12.8333H9.7554C9.40178 12.8333 8.9236 12.7855 8.67356 12.5667C8.42351 12.3479 8.23172 11.9287 8.23172 11.6192C8.23172 11.3098 8.42351 11.0062 8.67356 10.7874C8.9236 10.5686 9.40178 10.5779 9.7554 10.5779H12.1292V8.14832C12.1292 7.8389 12.2201 7.5605 12.4701 7.34171C12.7202 7.12292 12.9973 7.03477 13.3509 7.03477Z" fill="currentColor"/>
</svg>
