<svg width="27" height="22" viewBox="0 0 27 22" fill="none" xmlns="http://www.w3.org/2000/svg">
<path d="M2.66667 21.3333C1.93333 21.3333 1.30578 21.0724 0.784 20.5507C0.262222 20.0289 0.000888889 19.4009 0 18.6667V2.66667C0 1.93333 0.261333 1.30578 0.784 0.784C1.30667 0.262222 1.93422 0.000888889 2.66667 0H9.56667C9.92222 0 10.2613 0.0666668 10.584 0.2C10.9067 0.333333 11.1898 0.522222 11.4333 0.766666L13.3333 2.66667H24C24.7333 2.66667 25.3613 2.928 25.884 3.45067C26.4067 3.97333 26.6676 4.60089 26.6667 5.33333V18.6667C26.6667 19.4 26.4058 20.028 25.884 20.5507C25.3622 21.0733 24.7342 21.3342 24 21.3333H2.66667Z" fill="currentColor"/>
</svg>
