<svg width="47" height="39" viewBox="0 0 47 39" fill="currentColor" xmlns="http://www.w3.org/2000/svg">
<path d="M45 6.70312H23.9648L17.0918 0.128906C17.0043 0.0470376 16.8893 0.00102713 16.7695 0H1.875C0.837891 0 0 0.837891 0 1.875V36.5625C0 37.5996 0.837891 38.4375 1.875 38.4375H45C46.0371 38.4375 46.875 37.5996 46.875 36.5625V8.57812C46.875 7.54102 46.0371 6.70312 45 6.70312ZM30.4688 23.0273C30.4688 23.25 30.2695 23.4375 30.0293 23.4375H25.0781V28.4121C25.0781 28.6406 24.8906 28.8281 24.668 28.8281H22.207C21.9844 28.8281 21.7969 28.6406 21.7969 28.4121V23.4375H16.8457C16.6055 23.4375 16.4062 23.25 16.4062 23.0273V20.5664C16.4062 20.3438 16.6055 20.1562 16.8457 20.1562H21.7969V15.1816C21.7969 14.9531 21.9844 14.7656 22.207 14.7656H24.668C24.8906 14.7656 25.0781 14.9531 25.0781 15.1816V20.1562H30.0293C30.2695 20.1562 30.4688 20.3438 30.4688 20.5664V23.0273Z" fill="currentColor"/>
</svg>
