<svg width="20" height="20" viewBox="0 0 20 20" fill="currentColor" xmlns="http://www.w3.org/2000/svg">
<path fill-rule="evenodd" clip-rule="evenodd" d="M14.9201 13.4425C16.2191 11.7679 16.8312 9.66127 16.6321 7.5513C16.433 5.44133 15.4375 3.48647 13.8482 2.08442C12.2589 0.682364 10.1952 -0.0615589 8.07682 0.00399123C5.95849 0.0695414 3.94469 0.93964 2.44512 2.43728C0.944238 3.93595 0.0712938 5.95052 0.00417724 8.07047C-0.0629393 10.1904 0.680823 12.2562 2.0839 13.8468C3.48697 15.4374 5.44376 16.4331 7.55551 16.6311C9.66725 16.8291 11.775 16.2144 13.4493 14.9123L13.4941 14.9592L17.9128 19.3789C18.0096 19.4757 18.1245 19.5525 18.251 19.6049C18.3774 19.6573 18.5129 19.6842 18.6498 19.6842C18.7867 19.6842 18.9222 19.6573 19.0487 19.6049C19.1751 19.5525 19.29 19.4757 19.3868 19.3789C19.4836 19.2822 19.5603 19.1673 19.6127 19.0408C19.6651 18.9144 19.6921 18.7788 19.6921 18.642C19.6921 18.5051 19.6651 18.3696 19.6127 18.2431C19.5603 18.1167 19.4836 18.0018 19.3868 17.905L14.967 13.4862L14.9201 13.4425ZM12.7576 3.91123C13.3457 4.48986 13.8135 5.1792 14.1339 5.9395C14.4542 6.6998 14.6209 7.51601 14.6243 8.34105C14.6276 9.16608 14.4676 9.98362 14.1534 10.7465C13.8393 11.5094 13.3771 12.2025 12.7938 12.7859C12.2104 13.3693 11.5172 13.8314 10.7543 14.1456C9.99146 14.4598 9.17392 14.6198 8.34889 14.6164C7.52385 14.6131 6.70764 14.4464 5.94734 14.126C5.18704 13.8056 4.4977 13.3379 3.91908 12.7498C2.76274 11.5745 2.11767 9.98982 2.12439 8.34105C2.1311 6.69227 2.78905 5.11295 3.95492 3.94708C5.12079 2.78121 6.70011 2.12326 8.34889 2.11655C9.99766 2.10983 11.5823 2.7549 12.7576 3.91123Z" fill="#999999"/>
</svg>
