<svg width="25" height="26" viewBox="0 0 25 26" fill="currentColor" xmlns="http://www.w3.org/2000/svg">
<path fill-rule="evenodd" clip-rule="evenodd" d="M14.6433 0.197333C14.163 -5.80361e-08 13.5528 0 12.3337 0C11.1147 0 10.5058 -5.80361e-08 10.0242 0.197333C9.70725 0.326827 9.41907 0.517717 9.17621 0.759015C8.93335 1.00031 8.74061 1.28726 8.60908 1.60333C8.48704 1.89284 8.4403 2.23168 8.42083 2.72372C8.41156 3.08009 8.31187 3.42825 8.1311 3.73551C7.95033 4.04277 7.69443 4.29904 7.38743 4.48025C7.07422 4.65435 6.72213 4.74657 6.36379 4.74839C6.00546 4.75021 5.65245 4.66155 5.3375 4.49063C4.89869 4.25954 4.58062 4.13232 4.26644 4.09077C3.57913 4.00109 2.88416 4.1858 2.33206 4.60488C1.91922 4.91905 1.61413 5.44354 1.00525 6.49123C0.395076 7.53891 0.0912868 8.06211 0.0224798 8.57491C-0.0683974 9.25779 0.11855 9.94846 0.541778 10.495C0.733918 10.7443 1.00525 10.9533 1.42459 11.2155C2.04385 11.6011 2.44111 12.258 2.44111 12.9825C2.44111 13.7069 2.04385 14.3638 1.42588 14.7481C1.00525 15.0116 0.733918 15.2206 0.54048 15.4699C0.332198 15.7402 0.179242 16.0489 0.0903594 16.3784C0.00147677 16.7079 -0.0215896 17.0516 0.0224798 17.39C0.0912868 17.9015 0.395076 18.426 1.00525 19.4737C1.61543 20.5214 1.91922 21.0446 2.33206 21.36C2.88251 21.7794 3.57837 21.9637 4.26644 21.8741C4.58062 21.8326 4.89869 21.7054 5.3375 21.4743C5.65261 21.3031 6.00585 21.2144 6.36444 21.2162C6.72303 21.218 7.07536 21.3103 7.38873 21.4847C8.01967 21.8482 8.39357 22.5168 8.42083 23.2412C8.4403 23.7345 8.48704 24.0721 8.60908 24.3616C8.87392 24.9977 9.38283 25.504 10.0242 25.7676C10.5045 25.9649 11.1147 25.9649 12.3337 25.9649C13.5528 25.9649 14.163 25.9649 14.6433 25.7676C14.9602 25.6381 15.2484 25.4472 15.4913 25.2059C15.7341 24.9646 15.9269 24.6777 16.0584 24.3616C16.1804 24.0721 16.2272 23.7345 16.2467 23.2412C16.2726 22.5168 16.6478 21.8469 17.2801 21.4847C17.5933 21.3106 17.9454 21.2183 18.3037 21.2165C18.662 21.2147 19.015 21.3034 19.33 21.4743C19.7688 21.7054 20.0869 21.8326 20.401 21.8741C21.0891 21.965 21.785 21.7794 22.3354 21.36C22.7483 21.0459 23.0534 20.5214 23.6622 19.4737C24.2724 18.426 24.5762 17.9028 24.645 17.39C24.6889 17.0515 24.6656 16.7077 24.5765 16.3782C24.4874 16.0488 24.3342 15.7401 24.1257 15.4699C23.9336 15.2206 23.6622 15.0116 23.2429 14.7494C22.6236 14.3638 22.2264 13.7069 22.2264 12.9825C22.2264 12.258 22.6236 11.6011 23.2416 11.2168C23.6622 10.9533 23.9336 10.7443 24.127 10.495C24.3353 10.2247 24.4882 9.91599 24.5771 9.58653C24.666 9.25706 24.6891 8.9133 24.645 8.57491C24.5762 8.0634 24.2724 7.53891 23.6622 6.49123C23.0521 5.44354 22.7483 4.92035 22.3354 4.60488C21.7833 4.1858 21.0884 4.00109 20.401 4.09077C20.0869 4.13232 19.7688 4.25954 19.33 4.49063C19.0149 4.66178 18.6616 4.75056 18.303 4.74875C17.9445 4.74693 17.5921 4.65457 17.2788 4.48025C16.972 4.29888 16.7164 4.04254 16.5358 3.7353C16.3553 3.42805 16.2558 3.07996 16.2467 2.72372C16.2272 2.23039 16.1804 1.89284 16.0584 1.60333C15.9269 1.28726 15.7341 1.00031 15.4913 0.759015C15.2484 0.517717 14.9602 0.326827 14.6433 0.197333ZM12.3337 16.8772C14.5018 16.8772 16.2583 15.1336 16.2583 12.9825C16.2583 10.8313 14.5005 9.08772 12.3337 9.08772C10.167 9.08772 8.40915 10.8313 8.40915 12.9825C8.40915 15.1336 10.167 16.8772 12.3337 16.8772Z" fill="currentColor"/>
</svg>
