<svg width="62" height="80" viewBox="0 0 62 80" fill="currentColor" xmlns="http://www.w3.org/2000/svg">
<path d="M2.3129e-06 11.6326C2.3129e-06 8.54741 -3.67088e-06 2.54088 2.99524e-05 6.83148e-06C3.20629 -5.28257e-06 8.53611 2.40484e-06 11.6172 2.40484e-06H50.3411C53.4221 2.40484e-06 59.5264 7.19625e-05 61.9582 2.40484e-06C61.9582 2.63881 61.9582 11.6326 61.9582 11.6326V73.7814C61.9582 78.512 56.6143 81.265 52.7729 78.5159L30.9791 62.9282L9.18531 78.5159C5.34003 81.2689 2.3129e-06 78.5159 2.3129e-06 73.7853V11.6326Z" fill="currentColor"/>
</svg>
